<?xml version="1.0" encoding="UTF-8" standalone="no"?>
<svg
   xmlns:dc="http://purl.org/dc/elements/1.1/"
   xmlns:cc="http://creativecommons.org/ns#"
   xmlns:rdf="http://www.w3.org/1999/02/22-rdf-syntax-ns#"
   xmlns:svg="http://www.w3.org/2000/svg"
   xmlns="http://www.w3.org/2000/svg"
   xmlns:sodipodi="http://sodipodi.sourceforge.net/DTD/sodipodi-0.dtd"
   xmlns:inkscape="http://www.inkscape.org/namespaces/inkscape"
   x="0px"
   y="0px"
   width="144px"
   height="144px"
   viewbox="0 0 144 144"
   version="1.1"
   id="svg4"
   sodipodi:docname="logo.svg"
   inkscape:version="0.92.2 2405546, 2018-03-11"
   inkscape:export-filename="/home/thomas/Pictures/rust-trending.png"
   inkscape:export-xdpi="457.867"
   inkscape:export-ydpi="457.867">
  <metadata
     id="metadata10">
    <rdf:RDF>
      <cc:Work
         rdf:about="">
        <dc:format>image/svg+xml</dc:format>
        <dc:type
           rdf:resource="http://purl.org/dc/dcmitype/StillImage" />
        <dc:title></dc:title>
      </cc:Work>
    </rdf:RDF>
  </metadata>
  <defs
     id="defs8">
    <clipPath
       clipPathUnits="userSpaceOnUse"
       id="clipPath3688">
      <circle
         id="circle3690"
         cx="70.932205"
         cy="70.474579"
         r="40.423729" />
    </clipPath>
  </defs>
  <sodipodi:namedview
     pagecolor="#ffffff"
     bordercolor="#666666"
     borderopacity="1"
     objecttolerance="10"
     gridtolerance="10"
     guidetolerance="10"
     inkscape:pageopacity="0"
     inkscape:pageshadow="2"
     inkscape:window-width="1865"
     inkscape:window-height="1046"
     id="namedview6"
     showgrid="false"
     inkscape:snap-bbox="true"
     inkscape:bbox-nodes="true"
     inkscape:snap-bbox-edge-midpoints="true"
     inkscape:snap-intersection-paths="true"
     inkscape:snap-nodes="true"
     inkscape:snap-smooth-nodes="true"
     inkscape:snap-global="true"
     inkscape:snap-page="true"
     inkscape:snap-object-midpoints="true"
     inkscape:snap-center="true"
     inkscape:zoom="6.5555556"
     inkscape:cx="58.963877"
     inkscape:cy="77.006993"
     inkscape:window-x="55"
     inkscape:window-y="0"
     inkscape:window-maximized="1"
     inkscape:current-layer="svg4">
    <inkscape:grid
       type="xygrid"
       id="grid3684" />
  </sodipodi:namedview>
  <path
     d="m 71.01758,18.714844 c -0.5055,0 -1.01116,0.222968 -1.28516,0.667968 l -2.7207,4.394532 -1.28125,0.125 -3.52344,-3.779297 c -0.714,-0.764 -2.15548,-0.480094 -2.52148,0.503906 l -1.80469,4.828125 -1.24414,0.376953 -4.18555,-3.011719 c -0.85,-0.614 -2.20895,-0.04762 -2.37695,0.984376 l -0.83008,5.091796 -1.14258,0.613282 -4.69336,-2.140625 c -0.954,-0.436 -2.17867,0.383687 -2.13867,1.429687 l 0.17969,5.166016 -0.99219,0.814453 -5.0293,-1.185547 c -1.022,-0.238 -2.06031,0.798313 -1.82031,1.820312 l 1.18555,5.03125 -0.81445,0.990235 -5.16602,-0.179688 c -0.11974,-0.0034 -0.23554,0.01389 -0.34766,0.04102 -0.0267,0.0064 -0.052,0.01545 -0.0781,0.02344 -0.0842,0.02584 -0.16445,0.0588 -0.24219,0.09961 -0.0284,0.0148 -0.0565,0.02833 -0.084,0.04492 -0.0851,0.05186 -0.16602,0.110402 -0.24024,0.177734 -0.004,0.0034 -0.008,0.0063 -0.0117,0.0098 -0.12913,0.118191 -0.23296,0.257837 -0.32031,0.410156 -0.0115,0.02016 -0.0206,0.03995 -0.0312,0.06055 -0.08,0.153495 -0.14053,0.314948 -0.16797,0.484375 -0.0424,0.261931 -0.0215,0.533304 0.0937,0.787109 l 1.66016,3.640625 0.48047,1.054688 -0.61328,1.142578 -5.08985,0.828125 c -1.034,0.168 -1.59437,1.526953 -0.98437,2.376953 l 3.01172,4.181641 -0.37891,1.246093 -4.82813,1.806641 c -0.97999,0.366 -1.26599,1.805484 -0.5,2.521484 l 3.77735,3.523438 -0.0762,0.777344 -0.0488,0.501953 -4.39453,2.720703 c -0.89,0.55 -0.89,2.022312 0,2.570312 l 4.39453,2.720703 0.125,1.279297 -3.77735,3.523438 c -0.76599,0.714 -0.48,2.153484 0.5,2.521484 l 4.82813,1.804688 0.37891,1.246093 -3.01172,4.183594 c -0.612,0.852 -0.0496,2.209 0.98437,2.375 l 5.08985,0.828125 0.61328,1.144531 -0.11524,0.251954 -2.02539,4.441406 c -0.436,0.954 0.38769,2.180666 1.42969,2.138666 l 5.16406,-0.17968 0.81641,0.99218 -1.18555,5.03321 c -0.24,1.02 0.79831,2.05445 1.82031,1.81445 l 5.0293,-1.18359 0.99219,0.8125 -0.17969,5.16796 c -0.04,1.04601 1.18467,1.86374 2.13867,1.42774 l 4.69336,-2.13867 1.14258,0.61328 0.83008,5.08789 c 0.168,1.036 1.52695,1.59633 2.37695,0.98633 l 4.1836,-3.01367 1.24609,0.3789 1.80469,4.82617 c 0.366,0.98 1.80748,1.268 2.52148,0.5 l 3.52344,-3.77539 1.28125,0.12696 2.71875,4.39453 c 0.3425,0.55375 1.04775,0.76138 1.66211,0.62304 0.12287,-0.0277 0.24145,-0.0676 0.35351,-0.12304 0.11206,-0.0554 0.21653,-0.12579 0.31055,-0.20899 0.094,-0.0832 0.17734,-0.18001 0.24609,-0.29101 l 2.71875,-4.39453 1.28125,-0.12696 3.52149,3.77539 c 0.714,0.768 2.15548,0.48 2.52148,-0.5 l 1.80469,-4.82617 1.24609,-0.3789 4.1836,3.01367 c 0.85,0.61 2.207,0.0477 2.375,-0.98633 l 0.83008,-5.08789 1.14453,-0.61328 4.69336,2.13867 c 0.2385,0.109 0.494,0.13896 0.74218,0.10742 0.1241,-0.0158 0.24573,-0.0469 0.36329,-0.0918 0.58777,-0.22464 1.05695,-0.78835 1.0332,-1.44336 l -0.18164,-5.16796 0.99219,-0.8125 5.03125,1.18359 c 1.022,0.24 2.05835,-0.79445 1.81836,-1.81445 l -1.18555,-5.03321 0.81445,-0.99218 5.16602,0.17968 c 1.042,0.042 1.86573,-1.184666 1.42773,-2.138666 l -2.02344,-4.441406 -0.11523,-0.251954 0.61133,-1.144531 5.08984,-0.828125 c 1.036,-0.166 1.59838,-1.523 0.98438,-2.375 l -3.00977,-4.183594 0.37695,-1.246093 4.82813,-1.804688 c 0.982,-0.368 1.268,-1.807484 0.5,-2.521484 l -3.77539,-3.523438 0.125,-1.279297 4.39453,-2.720703 c 0.89,-0.548 0.89,-2.020312 0,-2.570312 l -4.39453,-2.720703 -0.125,-1.279297 2.875,-2.681641 0.90234,-0.841797 c 0.768,-0.716 0.48005,-2.155484 -0.50195,-2.521484 l -4.82617,-1.806641 -0.37891,-1.246093 3.01172,-4.181641 c 0.614,-0.85 0.0496,-2.206953 -0.98438,-2.376953 l -5.08984,-0.828125 -0.61133,-1.142578 0.4961,-1.089844 1.64257,-3.605469 c 0.11625,-0.253731 0.13881,-0.524401 0.0977,-0.787109 -0.0268,-0.171202 -0.0876,-0.335276 -0.16797,-0.490234 -0.009,-0.01724 -0.0159,-0.03385 -0.0254,-0.05078 -0.087,-0.154722 -0.19209,-0.298283 -0.32226,-0.417968 -0.005,-0.0051 -0.0121,-0.0087 -0.0176,-0.01367 -0.0738,-0.06651 -0.15364,-0.124725 -0.23828,-0.175782 -0.0249,-0.01494 -0.0504,-0.02757 -0.0762,-0.04102 -0.078,-0.041 -0.15942,-0.07382 -0.24414,-0.09961 -0.03,-0.0091 -0.0592,-0.01837 -0.0898,-0.02539 -0.1109,-0.02548 -0.22511,-0.04162 -0.34375,-0.03711 l -5.16602,0.179688 -0.8164,-0.990235 1.1875,-5.03125 c 0.24,-1.021999 -0.79831,-2.060312 -1.82031,-1.820312 l -5.03125,1.185547 -0.99219,-0.814453 0.18164,-5.166016 c 0.04,-1.046 -1.18467,-1.863687 -2.13867,-1.429687 l -4.69336,2.140625 -1.14258,-0.613282 -0.83008,-5.091796 c -0.168,-1.032001 -1.52695,-1.596374 -2.37695,-0.984376 l -4.1836,3.011719 -1.24414,-0.376953 -1.80468,-4.828125 c -0.366,-0.984 -1.80944,-1.267906 -2.52344,-0.503906 l -3.52149,3.779297 -1.27929,-0.125 -2.72071,-4.394532 c -0.275,-0.445 -0.77965,-0.667968 -1.28515,-0.667968 z m -0.0781,9.21289 a 3.108,3.108 0 0 1 0.002,0 3.108,3.108 0 0 1 3.01757,3.107422 3.108,3.108 0 0 1 -0.0625,0.617188 3.108,3.108 0 0 1 -0.18359,0.59375 3.108,3.108 0 0 1 -0.11914,0.248047 3.1084,3.1084 0 0 1 -5.48633,-0.0059 3.108,3.108 0 0 1 -0.004,-0.0078 3.108,3.108 0 0 1 -0.11524,-0.246094 3.1084,3.1084 0 0 1 -0.0234,-0.05273 3.108,3.108 0 0 1 -0.082,-0.234375 3.1084,3.1084 0 0 1 -0.0176,-0.06055 3.108,3.108 0 0 1 -0.0605,-0.246094 3.1084,3.1084 0 0 1 -0.01,-0.05469 3.108,3.108 0 0 1 -0.0312,-0.212891 3.1084,3.1084 0 0 1 -0.0137,-0.136719 3.108,3.108 0 0 1 -0.008,-0.201172 3.108,3.108 0 0 1 0.13867,-0.917968 3.108,3.108 0 0 1 0.24219,-0.572266 3.108,3.108 0 0 1 2.8164,-1.617188 z m -7.02148,5.126954 0.004,0.0039 4.78124,5.017578 c 1.08199,1.133 2.87386,1.174794 4.00586,0.0918 l 5.31641,-5.083985 a 38.286415,38.286415 0 0 1 2.27734,0.503907 38.265,38.265 0 0 1 1.01954,0.246093 38.286415,38.286415 0 0 1 2.25195,0.740235 38.265,38.265 0 0 1 1.47851,0.519531 38.286415,38.286415 0 0 1 1.67579,0.744141 38.265,38.265 0 0 1 1.88671,0.882812 38.286415,38.286415 0 0 1 1.17188,0.666016 38.265,38.265 0 0 1 2.2168,1.322265 38.286415,38.286415 0 0 1 0.67773,0.480469 38.265,38.265 0 0 1 2.47656,1.832031 38.286415,38.286415 0 0 1 8.83594,10.25 38.265,38.265 0 0 1 0.26563,0.431641 l -0.008,0.01758 -3.6582,8.261719 c -0.633,1.433 0.0124,3.109141 1.44141,3.74414 l 7.05273,3.13086 0.006,0.0039 a 38.265,38.265 0 0 1 0.004,0.08984 38.286415,38.286415 0 0 1 0.21679,3.701172 38.286415,38.286415 0 0 1 -0.12695,2.521484 38.265,38.265 0 0 1 -0.0117,0.332031 h -0.004 a 38.286415,38.286415 0 0 1 -7.38868,19.875 h 0.0625 a 38.265,38.265 0 0 1 -0.65039,0.785157 38.265,38.265 0 0 1 -0.0156,0.01953 38.265,38.265 0 0 1 -2.26563,2.636719 38.265,38.265 0 0 1 -0.61133,0.660156 l -0.008,-0.002 -6.5664,-1.41211 c -1.531,-0.328 -3.03724,0.645688 -3.36524,2.179688 l -1.54883,7.232422 -0.01,0.0488 a 38.265,38.265 0 0 1 -0.8086,0.31836 38.286415,38.286415 0 0 1 -2.03906,0.80468 38.265,38.265 0 0 1 -0.0137,0.004 38.265,38.265 0 0 1 -1.59375,0.52734 38.286415,38.286415 0 0 1 -2.01367,0.56836 38.265,38.265 0 0 1 -1.6875,0.38086 38.265,38.265 0 0 1 -0.0156,0.004 38.286415,38.286415 0 0 1 -2.02734,0.35937 38.265,38.265 0 0 1 -0.01,0.002 38.265,38.265 0 0 1 -1.77734,0.21484 38.286415,38.286415 0 0 1 -2.33008,0.17578 38.265,38.265 0 0 1 -0.83984,0.0293 38.286415,38.286415 0 0 1 -0.0234,0 38.265,38.265 0 0 1 -2.04297,-0.0508 38.265,38.265 0 0 1 -0.008,0 38.265,38.265 0 0 1 -1.89258,-0.0957 38.286415,38.286415 0 0 1 -1.87695,-0.23437 38.265,38.265 0 0 1 -1.91992,-0.29102 38.286415,38.286415 0 0 1 -1.78711,-0.4082 38.265,38.265 0 0 1 -1.94532,-0.49805 38.286415,38.286415 0 0 1 -1.69336,-0.56836 38.265,38.265 0 0 1 -2.10742,-0.77148 38.286415,38.286415 0 0 1 -0.49609,-0.21094 38.265,38.265 0 0 1 -0.96289,-0.41211 l -0.0117,-0.0586 -1.54688,-7.222656 c -0.328,-1.532 -1.83328,-2.506734 -3.36328,-2.177734 l -6.4082,1.375 a 38.286415,38.286415 0 0 1 -1.14258,-1.279297 38.265,38.265 0 0 1 -1.59765,-1.847656 38.265,38.265 0 0 1 -0.002,0 38.265,38.265 0 0 1 -0.59961,-0.785157 h 0.0508 A 38.286415,38.286415 0 0 1 34.22391,81.160267 h -0.0176 a 38.265,38.265 0 0 1 -0.041,-0.177734 38.286415,38.286415 0 0 1 -0.32618,-1.40625 38.265,38.265 0 0 1 -0.51367,-2.292969 38.286415,38.286415 0 0 1 -0.23828,-1.859375 38.265,38.265 0 0 1 -0.23242,-1.914062 38.286415,38.286415 0 0 1 -0.11328,-2.857422 38.286415,38.286415 0 0 1 0.0215,-0.447266 38.265,38.265 0 0 1 0.11524,-2.302734 38.286415,38.286415 0 0 1 0.084,-1.269532 38.265,38.265 0 0 1 0,-0.01172 h 0.002 a 38.265,38.265 0 0 1 0.004,-0.06836 l 0.008,-0.0039 6.68555,-2.970703 c 1.43,-0.635 2.07641,-2.311141 1.44141,-3.744141 l -1.37891,-3.117187 -2.04688,-4.705078 a 38.286415,38.286415 0 0 1 4.86133,-6.875 h -0.0293 a 38.265,38.265 0 0 1 0.49414,-0.5 38.286415,38.286415 0 0 1 1.99414,-2.015625 38.265,38.265 0 0 1 0.0137,-0.01367 38.265,38.265 0 0 1 0.043,-0.03711 38.265,38.265 0 0 1 2.76953,-2.324218 38.265,38.265 0 0 1 0.0977,-0.08008 38.265,38.265 0 0 1 0.1289,-0.0918 38.265,38.265 0 0 1 2.58984,-1.765625 38.286415,38.286415 0 0 1 0.45118,-0.302735 38.265,38.265 0 0 1 0.22656,-0.128906 38.265,38.265 0 0 1 2.33789,-1.273437 38.286415,38.286415 0 0 1 0.79687,-0.425782 38.265,38.265 0 0 1 0.3125,-0.140625 38.265,38.265 0 0 1 2.11915,-0.892578 38.286415,38.286415 0 0 1 1.08789,-0.447265 38.265,38.265 0 0 1 0.43554,-0.144532 38.265,38.265 0 0 1 1.85547,-0.570312 38.286415,38.286415 0 0 1 1.39063,-0.416016 38.265,38.265 0 0 1 2.26367,-0.511718 z M 33.86917,56.072266 a 3.108,3.108 0 0 1 1.59375,0.498046 3.108,3.108 0 0 1 1.41992,2.605469 3.1084,3.1084 0 0 1 -3.18164,3.107422 38.286415,38.286415 0 0 1 0,-0.002 3.108,3.108 0 0 1 -0.91406,-0.160156 3.108,3.108 0 0 1 -0.29102,-0.113282 3.108,3.108 0 0 1 -0.53711,-0.310546 3.108,3.108 0 0 1 -0.24218,-0.19336 3.108,3.108 0 0 1 -0.2168,-0.210937 3.108,3.108 0 0 1 -0.006,-0.0059 3.108,3.108 0 0 1 -0.11719,-0.140625 3.108,3.108 0 0 1 -0.0898,-0.107422 3.1084,3.1084 0 0 1 -0.041,-0.0625 3.108,3.108 0 0 1 -0.13281,-0.195312 3.1084,3.1084 0 0 1 -0.0625,-0.117188 3.108,3.108 0 0 1 -0.0801,-0.15039 3.1084,3.1084 0 0 1 -0.0801,-0.189453 3.108,3.108 0 0 1 -0.041,-0.09766 3.1084,3.1084 0 0 1 -0.0508,-0.166015 3.108,3.108 0 0 1 -0.041,-0.132813 3.1084,3.1084 0 0 1 -0.0254,-0.132812 3.108,3.108 0 0 1 -0.0351,-0.173828 3.1084,3.1084 0 0 1 -0.0274,-0.300782 3.108,3.108 0 0 1 -0.004,-0.144531 3.108,3.108 0 0 1 0.0625,-0.617187 3.108,3.108 0 0 1 3.14062,-2.486328 z m 73.92578,0.146484 a 3.108,3.108 0 0 1 0.31055,0.002 3.108,3.108 0 0 1 0.30859,0.0332 3.108,3.108 0 0 1 0.30469,0.06445 3.108,3.108 0 0 1 0.29492,0.09375 3.108,3.108 0 0 1 0.28516,0.123047 3.108,3.108 0 0 1 0.27148,0.150391 3.108,3.108 0 0 1 0.25586,0.177734 3.108,3.108 0 0 1 0.002,0.002 3.108,3.108 0 0 1 0.22461,0.191407 3.108,3.108 0 0 1 0.01,0.0078 3.108,3.108 0 0 1 0.0254,0.02734 3.108,3.108 0 0 1 0.17383,0.181641 3.108,3.108 0 0 1 0.0469,0.05469 3.108,3.108 0 0 1 0.15039,0.193359 3.108,3.108 0 0 1 0.01,0.01367 3.108,3.108 0 0 1 0.0215,0.03516 3.108,3.108 0 0 1 0.13086,0.205079 3.108,3.108 0 0 1 0.043,0.07813 3.108,3.108 0 0 1 0.0957,0.193359 3.108,3.108 0 0 1 0.0351,0.08594 3.108,3.108 0 0 1 0.084,0.220704 3.108,3.108 0 0 1 0.004,0.01172 3.108,3.108 0 0 1 0.01,0.0332 3.108,3.108 0 0 1 0.0644,0.240234 3.108,3.108 0 0 1 0.0215,0.111328 3.108,3.108 0 0 1 0.0293,0.179688 3.108,3.108 0 0 1 0.0137,0.138671 3.108,3.108 0 0 1 0.0137,0.201172 3.108,3.108 0 0 1 0,0.01172 3.108,3.108 0 0 1 0,0.03906 3.108,3.108 0 0 1 -0.38086,1.490235 3.108,3.108 0 0 1 -2.27735,1.582031 3.108,3.108 0 0 1 -0.0117,0.002 3.1084,3.1084 0 0 1 -3.54687,-3.074219 3.108,3.108 0 0 1 1.77734,-2.804687 3.108,3.108 0 0 1 0.28711,-0.119141 3.108,3.108 0 0 1 0.91211,-0.177734 z M 47.91409,99.865234 a 3.108,3.108 0 0 1 0.002,0 3.108,3.108 0 0 1 3.01757,3.107426 3.1084,3.1084 0 0 1 -0.01,0.20703 3.1084,3.1084 0 0 1 -0.002,0.008 3.108,3.108 0 0 1 -6.19532,-0.01 3.108,3.108 0 0 1 -0.004,-0.0391 3.108,3.108 0 0 1 -0.006,-0.16601 3.108,3.108 0 0 1 0.0625,-0.61719 3.108,3.108 0 0 1 1.82422,-2.23633 3.108,3.108 0 0 1 1.31054,-0.253906 z m 46.05078,0.144536 a 3.108,3.108 0 0 1 0.002,0 3.108,3.108 0 0 1 1.24023,0.30078 3.108,3.108 0 0 1 0.27344,0.14648 3.108,3.108 0 0 1 0.25781,0.17383 3.108,3.108 0 0 1 0.24024,0.19922 3.108,3.108 0 0 1 0.21679,0.2207 3.108,3.108 0 0 1 0.19336,0.24024 3.108,3.108 0 0 1 0.002,0.002 3.108,3.108 0 0 1 0.0117,0.0176 3.108,3.108 0 0 1 0.1543,0.23828 3.108,3.108 0 0 1 0.004,0.004 3.108,3.108 0 0 1 0.0156,0.0312 3.108,3.108 0 0 1 0.125,0.23829 3.108,3.108 0 0 1 0.002,0.006 3.108,3.108 0 0 1 0.0137,0.0352 3.108,3.108 0 0 1 0.0976,0.2461 3.108,3.108 0 0 1 0.004,0.008 3.108,3.108 0 0 1 0.0156,0.0586 3.108,3.108 0 0 1 0.0664,0.22461 3.108,3.108 0 0 1 0.0254,0.13281 3.108,3.108 0 0 1 0.0293,0.16602 3.108,3.108 0 0 1 0.0117,0.11328 3.108,3.108 0 0 1 0.0156,0.21875 3.108,3.108 0 0 1 0.002,0.0859 3.108,3.108 0 0 1 -6.19922,0.28515 3.1084,3.1084 0 0 1 -0.0176,-0.28515 3.108,3.108 0 0 1 3.19726,-3.10742 z"
     id="path3682"
     inkscape:connector-curvature="0" />
  <g
     id="g204"
     transform="matrix(0.66279676,0,0,-0.66279676,46.149451,89.428231)"
     style="fill:#ff0000;fill-opacity:1" />
  <g
     id="g208"
     transform="matrix(0.66279676,0,0,-0.66279676,47.770849,91.236671)"
     style="fill:#ff0000;fill-opacity:1" />
  <g
     id="g212"
     transform="matrix(0.66279676,0,0,-0.66279676,49.348905,93.541548)"
     style="fill:#ff0000;fill-opacity:1" />
  <g
     id="g216"
     transform="matrix(0.66279676,0,0,-0.66279676,51.510747,95.768806)"
     style="fill:#ff0000;fill-opacity:1" />
  <g
     id="g220"
     transform="matrix(0.66279676,0,0,-0.66279676,54.493333,97.061988)"
     style="fill:#ff0000;fill-opacity:1" />
  <g
     id="g224"
     transform="matrix(0.66279676,0,0,-0.66279676,57.769142,97.301525)"
     style="fill:#ff0000;fill-opacity:1" />
  <g
     id="g1688">
    <path
       sodipodi:nodetypes="ccccccccscccccccscscc"
       d="m 61.095916,108.04009 c 0,-0.95376 -0.03712,-4.10735 -0.05435,-7.45182 -11.134985,2.4212 -13.4846,-4.722428 -13.4846,-4.722428 -1.820703,-4.625658 -4.444052,-5.856472 -4.444052,-5.856472 -3.631464,-2.484162 0.273735,-2.433127 0.273735,-2.433127 4.019199,0.282352 6.135509,4.125247 6.135509,4.125247 3.569824,6.118277 9.36333,4.349273 11.647328,3.326577 0.359899,-2.586233 1.396513,-4.352586 2.541163,-5.352084 -8.890093,-1.011427 -18.235528,-4.444052 -18.235528,-19.780506 0,-4.369156 1.563538,-7.939642 4.123922,-10.74261 -0.415574,-1.008777 -1.785575,-5.079674 0.388399,-10.592818 0,0 3.361042,-1.075056 11.009054,4.103375 3.192692,-0.886822 6.6167,-1.331559 10.018173,-1.347466 3.401473,0.01591 6.828132,0.460644 10.026789,1.347466 7.639396,-5.178431 10.995799,-4.103375 10.995799,-4.103375 2.178613,5.513144 0.808612,9.584041 0.393038,10.592818 2.566349,2.802968 4.118619,6.373454 4.118619,10.74261 0,15.373571 -9.36333,18.757811 -18.275958,19.748692 1.435618,1.242081 2.714816,3.677859 2.714816,7.412056 0,5.355395 -0.04573,9.665565 -0.04573,10.983865 -6.527083,1.14779 -13.116364,1.48701 -19.846124,0 z"
       style="fill:#000000;fill-opacity:1;fill-rule:evenodd;stroke:none;stroke-width:0.66279674"
       id="path202"
       inkscape:connector-curvature="0" />
    <g
       style="fill:#ff0000;fill-opacity:1"
       transform="matrix(0.66279676,0,0,-0.66279676,60.817075,96.783014)"
       id="g228">
      <path
         id="path230"
         style="fill:#ffffff;fill-opacity:1;fill-rule:nonzero;stroke:none"
         d="m 0,0 c 0.086,-0.485 -0.413,-0.984 -1.126,-1.117 -0.701,-0.129 -1.35,0.172 -1.439,0.653 -0.087,0.498 0.42,0.997 1.121,1.126 C -0.73,0.786 -0.091,0.494 0,0 m -4.5985944,-0.78230769 c 0.017,-0.49800001 -0.563,-0.91100001 -1.281,-0.92000001 -0.722,-0.017 -1.307,0.387 -1.315,0.87700001 0,0.503 0.568,0.911 1.289,0.924 0.718,0.014 1.307,-0.387 1.307,-0.881 m -4.9424033,0.36140326 c -0.147,-0.473 -0.8250003,-0.68699997 -1.5090003,-0.486 -0.683,0.207 -1.13,0.76 -0.992,1.238 0.142,0.477 0.824,0.70000003 1.513,0.485 0.6820003,-0.206 1.1300003,-0.756 0.9880003,-1.237 M -14.040999,1.5301939 c -0.331,-0.365 -1.036,-0.267 -1.552,0.231 -0.528,0.487 -0.675,1.178 -0.344,1.543 0.336,0.366 1.045,0.263 1.565,-0.231 0.524,-0.486 0.683,-1.182 0.331,-1.543 m -3.261696,3.3603941 c -0.37,-0.258 -0.976,-0.017 -1.35,0.52 -0.37,0.538 -0.37,1.182 0.009,1.44 0.374,0.258 0.971,0.025 1.35,-0.507 0.369,-0.546 0.369,-1.19 -0.009,-1.453 m -2.380906,3.4775022 c -0.288,-0.267 -0.852,-0.143 -1.233,0.279 -0.396,0.421 -0.469,0.985 -0.177,1.255 0.297,0.2669998 0.843,0.1419998 1.238,-0.279 0.396,-0.426 0.473,-0.985 0.172,-1.255 m -2.446296,2.7284988 c -0.133,-0.301 -0.605,-0.391 -1.035,-0.184 -0.439,0.197 -0.684,0.606 -0.542,0.907 0.13,0.308 0.602,0.394 1.04,0.188 0.438,-0.197 0.688,-0.61 0.537,-0.911"
         inkscape:connector-curvature="0" />
    </g>
  </g>
</svg>
